<svg xmlns="http://www.w3.org/2000/svg" width="200" viewBox="0 0 166 50" fill="#231f20">
  <path d="M58.72,35h4.75v.74c0,2.89-1.63,4.8-4.52,4.8a4.79,4.79,0,0,1-5-5,4.84,4.84,0,0,1,5-5,4.89,4.89,0,0,1,3.58,1.25l-.79,1a4.13,4.13,0,0,0-2.79-1,3.6,3.6,0,0,0-3.68,3.78A3.53,3.53,0,0,0,59,39.32a3,3,0,0,0,3.17-3v-.14h-3.4V35Z"></path>
  <path d="M74.5,34a2.94,2.94,0,0,1-2.14,3V37l2.46,3.07v.24H73.38l-2.51-3.12H67.93V40.3h-1.3V30.7h4C73.05,30.7,74.5,31.87,74.5,34Zm-3.87-2.05H68V36h2.79c1.4,0,2.38-.65,2.38-2S72.17,31.91,70.63,31.91Z"></path>
  <path d="M77.2,35.55a5,5,0,1,1,10,0,5,5,0,1,1-10,0Zm8.61,0a3.66,3.66,0,1,0-7.31,0,3.66,3.66,0,1,0,7.31,0Z"></path>
  <path d="M90.23,36.29V30.7h1.3v5.54a2.67,2.67,0,0,0,2.79,3c1.87,0,2.75-1.26,2.75-3V30.7h1.3v5.54c0,2.52-1.49,4.24-4.09,4.24S90.23,38.76,90.23,36.29Z"></path>
  <path d="M102.1,30.7h4.05c2.37,0,3.86,1.12,3.86,3.22s-1.58,3.35-3.91,3.35h-2.65v3h-1.31V30.7Zm4,1.21H103.4V36.1h2.65c1.54,0,2.56-.65,2.56-2.14S107.59,31.91,106.05,31.91Z"></path>
  <path d="M60.21,25.32H54V9.47h6.24c5.21,0,8.41,3.29,8.41,7.92S65.42,25.32,60.21,25.32Zm-3-13.06V22.53H60c3.08,0,5.34-1.81,5.34-5.14S63.08,12.26,60,12.26Z"></path>
  <path d="M72.52,18.58V9.47h3.2v9.07a3.77,3.77,0,0,0,3.9,4.07c2.62,0,3.86-1.81,3.86-4.07V9.47h3.2v9.07c0,4.11-2.63,7.11-7.06,7.11A6.69,6.69,0,0,1,72.52,18.58Z"></path>
  <path d="M98,9.47h.58l8.16,15.85h-3.65l-1-2.18h-7.6l-1,2.18H89.84Zm.37,5.79h-.2l-2.42,5.17-.21.33h5.38l-.21-.33Z"></path>
  <path d="M110.65,25.32V9.47h3.2V22.53h8.45v2.79Z"></path>
  <path d="M130.06,25.32h-3.2V9.47h3.2Z"></path>
  <path d="M134.2,9.47h13.54v2.79h-5.17V25.32h-3.2V12.26H134.2Z"></path>
  <path d="M162.31,9.47H166l-6,9.81v6h-3.2V19.24l-5.95-9.77h3.69L157.83,15l.46,1h.28l.5-1Z"></path>
  <rect width="3.27" height="50"></rect>
  <rect x="8.16" width="3.27" height="50"></rect>
  <path d="M25.3,25A8.7,8.7,0,0,0,17,16.32H16.7v3.25a5.41,5.41,0,0,1,0,10.82v3.19h1.07A8.72,8.72,0,0,0,25.3,25Z"></path>
  <path d="M35.19,25A16.84,16.84,0,0,0,18.34,8.17H16.7v3.22h1.66a13.59,13.59,0,0,1,0,27.17H16.7v3.27h1.64A16.88,16.88,0,0,0,35.19,25Z"></path>
  <path d="M19.63,0H16.7V3.27l3.81,0a21.73,21.73,0,0,1-.8,43.44h-3V50h2.93a25,25,0,0,0,0-50Z"></path>
  <path d="M18.79,11.39Z"></path>
</svg>
