<svg xmlns="http://www.w3.org/2000/svg" viewBox="0 0 690.18665 266.66666" width="690.18665" height="266.66666">
  <g transform="matrix(1.3333333,0,0,-1.3333333,0,266.66667)">
    <g transform="scale(0.1)" fill="#231f20">
      <path d="M 899.078,2000 1.25,1501.2 0,1500.52 V 499.48 L 897.91,0.660156 899.078,0 l 897.832,498.801 1.25,0.679 V 1500.52 L 900.25,1999.35 Z M 95.8633,1482.07 867.738,1910.91 V 1053.26 Z M 968.059,1890 1715.74,1474.61 1295.14,856.461 Z m -37.637,-871.56 v 777.81 L 1229.08,852.52 Z M 114.344,1400.12 842.387,995.648 427.656,375.68 Z m 1215.726,-603.71 405.41,595.8 V 571.18 Z M 62.6797,536.359 V 1359.95 L 366.121,367.781 Z M 930.422,946.738 1702.29,517.922 930.422,89.1016 Z M 462.102,314.461 867.738,920.859 V 89.1016 L 462.102,314.461" />
      <path d="M 5035.67,599.352 V 810.84 h 140.69 v -25.5 h -111.3 v -65.399 h 101.4 V 694.75 h -101.4 v -69.602 h 111.3 v -25.796 z m -132.99,0 V 785.34 h -71.09 v 25.5 h 171.89 v -25.5 h -71.09 V 599.352 Z m -267.12,80.398 v 131.09 h 29.41 V 678.539 c 0,-41.687 26.7,-56.098 53.09,-56.098 26.1,0 53.1,14.411 53.1,56.098 V 810.84 h 29.4 V 679.75 c 0,-56.699 -35.1,-84.91 -82.5,-84.91 -47.1,0 -82.5,28.801 -82.5,84.91 z M 4503.74,599.352 V 785.34 h -71.1 v 25.5 h 171.9 v -25.5 h -71.1 V 599.352 Z m -132.2,0 V 810.84 h 29.39 V 599.352 Z m -133,0 V 785.34 h -71.09 v 25.5 h 171.89 v -25.5 h -71.09 V 599.352 Z m -257.99,68.988 h 28.21 c 3.89,-24.301 17.39,-48.289 57.29,-48.289 37.5,0 52.2,18.289 52.2,35.39 0,18.008 -8.7,29.707 -43.5,36.008 l -21.6,3.891 c -45.6,8.101 -63.59,27.601 -63.59,60 0,31.199 27.29,59.988 72.89,59.988 55.8,0 78.6,-34.789 81.9,-65.387 h -29.71 c -4.19,21.297 -17.69,40.797 -51.89,40.797 -32.7,0 -45.29,-18.297 -45.29,-33.008 0,-18.89 9.89,-27.589 41.99,-33.289 l 21.9,-3.902 c 42.89,-7.5 68.1,-27.891 68.1,-63 0,-36.301 -32.1,-62.699 -83.4,-62.699 -53.99,0 -83.09,31.199 -85.5,73.5 z m -204.9,-68.988 V 810.84 h 44.7 l 100.8,-175.199 V 810.84 h 29.39 V 599.352 h -40.5 l -105,182.98 v -182.98 z m -85.95,0 V 810.84 h 29.4 V 599.352 Z m -287.4,68.988 h 28.2 c 3.9,-24.301 17.4,-48.289 57.3,-48.289 37.5,0 52.2,18.289 52.2,35.39 0,18.008 -8.71,29.707 -43.5,36.008 l -21.6,3.891 c -45.6,8.101 -63.6,27.601 -63.6,60 0,31.199 27.3,59.988 72.9,59.988 55.8,0 78.6,-34.789 81.9,-65.387 h -29.71 c -4.2,21.297 -17.69,40.797 -51.89,40.797 -32.7,0 -45.29,-18.297 -45.29,-33.008 0,-18.89 9.89,-27.589 41.99,-33.289 l 21.9,-3.902 c 42.89,-7.5 68.1,-27.891 68.1,-63 0,-36.301 -32.1,-62.699 -83.4,-62.699 -54,0 -83.1,31.199 -85.5,73.5 z M 3238.99,599.352 V 810.84 h 140.69 v -25.5 h -111.3 v -65.399 h 101.4 V 694.75 h -101.4 v -69.602 h 111.3 V 599.352 Z M 2995.7,705.238 c 0,62.703 40.79,110.09 103.79,110.09 66.9,0 95.7,-45.289 101.1,-82.789 h -31.5 c -6.3,29.699 -26.1,56.699 -69.89,56.699 -40.81,0 -72.31,-30 -72.31,-84 0,-53.699 31.5,-84 72.31,-84 43.79,0 64.18,27 70.19,57 h 31.8 c -4.5,-37.199 -33.9,-83.398 -101.99,-83.398 -61.51,0 -103.5,45.308 -103.5,110.398 z M 2786.29,599.352 V 810.84 h 44.7 l 100.8,-175.199 V 810.84 h 29.4 V 599.352 h -40.5 l -105,182.98 v -182.98 z m -183.96,0 V 810.84 h 140.69 v -25.5 h -111.3 v -65.399 h 101.4 V 694.75 h -101.4 v -69.602 h 111.3 v -25.796 z m -82.79,0 V 810.84 h 29.39 V 599.352 Z m -248.27,105.886 c 0,62.703 40.79,110.09 103.78,110.09 66.91,0 95.71,-45.289 101.11,-82.789 h -31.51 c -6.29,29.699 -26.09,56.699 -69.89,56.699 -40.8,0 -72.3,-30 -72.3,-84 0,-53.699 31.5,-84 72.3,-84 43.8,0 64.19,27 70.2,57 h 31.79 c -4.5,-37.199 -33.89,-83.398 -101.99,-83.398 -61.5,0 -103.49,45.308 -103.49,110.398 z M 2078.06,668.34 h 28.21 c 3.89,-24.301 17.39,-48.289 57.29,-48.289 37.5,0 52.2,18.289 52.2,35.39 0,18.008 -8.7,29.707 -43.5,36.008 l -21.6,3.891 c -45.6,8.101 -63.59,27.601 -63.59,60 0,31.199 27.29,59.988 72.89,59.988 55.8,0 78.6,-34.789 81.9,-65.387 h -29.71 c -4.2,21.297 -17.69,40.797 -51.89,40.797 -32.7,0 -45.29,-18.297 -45.29,-33.008 0,-18.89 9.89,-27.589 41.99,-33.289 l 21.9,-3.902 c 42.89,-7.5 68.1,-27.891 68.1,-63 0,-36.301 -32.1,-62.699 -83.4,-62.699 -53.99,0 -83.1,31.199 -85.5,73.5 z m 2218.75,231.012 v 211.488 h 29.4 V 925.148 h 103.2 v -25.796 z m -137.82,186.588 -40.2,-105.6 h 81.6 z m 72.6,-186.588 -21.91,56.386 h -99.89 l -21.6,-56.386 h -31.8 l 85.8,211.488 h 35.4 l 87.59,-211.488 z m -390.86,105.888 c 0,62.7 40.79,110.09 103.79,110.09 66.9,0 95.7,-45.29 101.1,-82.79 h -31.5 c -6.3,29.69 -26.1,56.7 -69.9,56.7 -40.8,0 -72.3,-30 -72.3,-84 0,-53.701 31.5,-84.002 72.3,-84.002 43.8,0 64.19,27 70.2,57 h 31.8 c -4.51,-37.199 -33.9,-83.398 -102,-83.398 -61.5,0 -103.49,45.308 -103.49,110.4 z m -73.77,-105.888 v 211.488 h 29.39 V 899.352 Z m -133,0 v 185.988 h -71.09 v 25.5 h 171.89 v -25.5 h -71.09 V 899.352 Z m -160.19,186.588 -40.2,-105.6 h 81.59 z m 72.59,-186.588 -21.9,56.386 h -99.89 l -21.61,-56.386 h -31.79 l 85.8,211.488 h 35.4 l 87.59,-211.488 z m -431.95,0 v 211.488 h 48.9 l 64.2,-181.801 64.79,181.801 h 47.1 V 899.352 h -28.8 l 0.61,187.788 -66.91,-187.788 h -34.79 l -66.9,187.788 0.3,-187.788 z m -183.96,0 v 211.488 h 140.69 v -25.5 h -111.3 v -65.4 h 101.4 v -25.19 h -101.4 v -69.602 h 111.3 v -25.796 z m -204.91,0 v 211.488 h 29.1 v -89.7 h 105 v 89.7 h 29.4 V 899.352 h -29.4 v 95.687 h -105 v -95.687 z m -129.2,0 v 185.988 h -71.09 v 25.5 h 171.89 v -25.5 h -71.09 V 899.352 Z m -150.19,186.588 -40.2,-105.6 h 81.59 z m 72.6,-186.588 -21.91,56.386 h -99.89 l -21.6,-56.386 h -31.8 l 85.8,211.488 h 35.4 l 87.59,-211.488 z m -421.79,0 v 211.488 h 48.9 l 64.19,-181.801 64.8,181.801 h 47.1 V 899.352 h -28.8 l 0.6,187.788 -66.9,-187.788 h -34.79 l -66.9,187.788 0.29,-187.788 z m 2250.85,485.988 v -66 h 63.3 c 24.89,0 38.1,12.3 38.1,33 0,20.7 -13.21,33 -38.1,33 z m 137.99,-185.99 h -41.69 l -96.3,95.69 v -95.69 h -29.41 v 211.49 h 97.2 c 36.6,0 64.81,-22.5 64.81,-58.5 0,-36.9 -31.51,-57.9 -64.51,-57.9 h -28.79 c 3.89,-3.3 11.1,-10.2 20.09,-18.89 z m -351.65,0 v 211.49 h 140.69 v -25.5 h -111.3 v -65.4 h 101.4 v -25.19 h -101.4 v -69.61 h 111.3 v -25.79 z m -168.15,0 v 211.49 h 133.2 v -25.5 h -103.8 v -65.4 h 93.3 v -25.19 h -93.3 v -95.4 z m -207,80.4 v 131.09 h 29.4 v -132.29 c 0,-41.7 26.7,-56.11 53.1,-56.11 26.09,0 53.1,14.41 53.1,56.11 v 132.29 h 29.4 v -131.09 c 0,-56.7 -35.11,-84.91 -82.5,-84.91 -47.1,0 -82.5,28.8 -82.5,84.91 z m -109.8,106.19 -40.2,-105.6 h 81.59 z m 72.59,-186.59 -21.9,56.39 H 3600 l -21.61,-56.39 h -31.79 l 85.8,211.49 h 35.4 l 87.59,-211.49 z m -323.68,0 v 211.49 h 29.4 v -185.7 h 103.2 v -25.79 z m -296.4,68.99 h 28.2 c 3.89,-24.3 17.39,-48.29 57.29,-48.29 37.5,0 52.2,18.29 52.2,35.39 0,18.01 -8.7,29.7 -43.5,36.01 l -21.6,3.89 c -45.59,8.1 -63.59,27.6 -63.59,60 0,31.2 27.29,59.99 72.89,59.99 55.8,0 78.6,-34.79 81.9,-65.39 h -29.7 c -4.2,21.3 -17.7,40.8 -51.9,40.8 -32.69,0 -45.29,-18.3 -45.29,-33.01 0,-18.89 9.89,-27.59 41.99,-33.29 l 21.91,-3.9 c 42.89,-7.5 68.09,-27.9 68.09,-63 0,-36.3 -32.1,-62.7 -83.4,-62.7 -53.99,0 -83.09,31.21 -85.49,73.5 z m -215.31,-68.99 v 211.49 h 44.7 l 100.8,-175.2 v 175.2 h 29.39 v -211.49 h -40.49 l -105,182.99 v -182.99 z m -60.31,105.59 c 0,51.9 -34.8,84.3 -80.69,84.3 -45.9,0 -81,-32.4 -81,-84.3 0,-51.89 35.1,-83.99 81,-83.99 45.89,0 80.69,32.1 80.69,83.99 z m -192.89,0 c 0,64.5 50.7,110.39 112.2,110.39 61.49,0 111.89,-45.89 111.89,-110.39 0,-64.5 -50.4,-110.1 -111.89,-110.1 -61.5,0 -112.2,45.6 -112.2,110.1 z m -256.5,-105.59 v 211.49 h 48.9 l 64.2,-181.8 64.8,181.8 h 47.1 v -211.49 h -28.8 l 0.59,187.79 -66.89,-187.79 h -34.8 l -66.89,187.79 0.29,-187.79 z m -85.94,0 v 211.49 h 29.39 v -211.49 z m -212.7,68.99 h 28.21 c 3.89,-24.3 17.39,-48.29 57.29,-48.29 37.5,0 52.2,18.29 52.2,35.39 0,18.01 -8.7,29.7 -43.5,36.01 l -21.6,3.89 c -45.6,8.1 -63.59,27.6 -63.59,60 0,31.2 27.29,59.99 72.89,59.99 55.8,0 78.6,-34.79 81.9,-65.39 h -29.71 c -4.2,21.3 -17.69,40.8 -51.89,40.8 -32.7,0 -45.29,-18.3 -45.29,-33.01 0,-18.89 9.89,-27.59 41.99,-33.29 l 21.9,-3.9 c 42.89,-7.5 68.1,-27.9 68.1,-63 0,-36.3 -32.1,-62.7 -83.4,-62.7 -53.99,0 -83.1,31.21 -85.5,73.5" />
    </g>
  </g>
</svg>
