<svg xmlns="http://www.w3.org/2000/svg" width="793" height="98">
  <g fill="#231f20">
    <path d="m211.55475,79.69477l6.71,0l0,-52l-6.71,0l0,-2.99l18.87,0l0,2.99l-6.71,0l0,23.51l32.28,0l0,-23.51l-6.71,0l0,-2.99l18.87,0l0,2.99l-6.71,0l0,52l6.71,0l0,2.99l-18.87,0l0,-2.99l6.71,0l0,-25.25l-32.28,0l0,25.25l6.71,0l0,2.99l-18.87,0l0,-2.99z" class="cls-2" />
    <path d="m279.12475,67.56477l0,-23.18l-6.62,-0.91l0,-2.24l11.82,-1.91l0,27.74c0,8.81 3.69,13.04 11.15,13.04c5.7,0 11.32,-3.16 11.32,-9.47l0,-26.25l-6.62,-0.91l0,-2.24l11.82,-1.91l0,39.13l6.62,0.91l0,2.24l-11.66,1.91l0,-7.48l-0.33,0c-1.34,3.74 -5.62,7.64 -12.91,7.64c-10.23,0 -14.59,-5.4 -14.59,-16.12l0,0.01z" class="cls-2" />
    <path d="m325.90475,61.42477c0,-14.54 6.96,-22.26 17.94,-22.26c7.13,0 11.4,3.57 13.25,7.64l0.34,0l0,-22.84l-6.62,-0.91l0,-2.24l11.82,-1.91l0,59.56l6.62,0.91l0,2.24l-11.82,1.91l0,-7.48l-0.34,0c-1.76,4.15 -6.12,7.64 -13.25,7.64c-10.98,0 -17.94,-7.73 -17.94,-22.26zm31.53,9.13l0,-18.28c0,-5.9 -6.04,-9.55 -12.24,-9.55c-8.64,0 -13.58,6.15 -13.58,15.7l0,5.98c0,9.55 4.95,15.7 13.58,15.7c6.21,0 12.24,-3.66 12.24,-9.55z" class="cls-2" />
    <path d="m381.32475,78.28477l-0.25,0l0,4.4l-4.02,0l0,-12.54l4.02,0l0,2.16c0,5.15 3.77,8.14 10.82,8.14s10.98,-2.58 10.98,-7.97c0,-4.65 -2.93,-7.14 -8.38,-8.31l-4.61,-1c-7.97,-1.66 -12.49,-5.23 -12.49,-12.54s5.79,-11.46 14.34,-11.46c5.79,0 9.39,2.16 10.65,4.82l0.25,0l0,-3.82l4.02,0l0,12.54l-4.02,0l0,-2.99c0,-4.9 -3.61,-7.31 -10.23,-7.31s-10.15,2.41 -10.15,7.39s3.19,7.14 8.47,8.31l4.44,0.91c8.22,1.83 12.75,5.32 12.75,12.54s-5.7,12.13 -15.18,12.13c-5.87,0 -9.89,-2.58 -11.4,-5.4l-0.01,0z" class="cls-2" />
    <path d="m417.20475,61.42477c0,-13.96 7.55,-22.26 19.37,-22.26s19.37,8.31 19.37,22.26s-7.55,22.26 -19.37,22.26s-19.37,-8.31 -19.37,-22.26zm32.87,3.65l0,-7.31c0,-9.05 -4.44,-15.37 -13.5,-15.37s-13.5,6.31 -13.5,15.37l0,7.31c0,9.05 4.44,15.37 13.5,15.37s13.5,-6.31 13.5,-15.37z" class="cls-2" />
    <path d="m464.07475,79.69477l6.62,0l0,-35.3l-6.62,-0.91l0,-2.24l11.65,-1.91l0,7.48l0.33,0c1.43,-3.74 5.62,-7.64 12.91,-7.64c10.23,0 14.59,5.4 14.59,16.03l0,24.51l6.62,0l0,2.99l-18.45,0l0,-2.99l6.62,0l0,-24.01c0,-8.72 -3.69,-12.96 -11.15,-12.96c-5.7,0 -11.32,3.16 -11.32,9.47l0,27.5l6.62,0l0,2.99l-18.45,0l0,-2.99l0.03,-0.02z" class="cls-2" />
    <path d="m536.84475,79.69477l6.71,0l0,-52l-6.71,0l0,-2.99l42.01,0l0,13.37l-4.61,0l0,-10.13l-25.24,0l0,24.09l18.7,0l0,-6.81l3.94,0l0,16.86l-3.94,0l0,-6.81l-18.7,0l0,24.42l8.38,0l0,2.99l-20.54,0l0,-2.99z" class="cls-2" />
    <path d="m587.82475,61.42477c0,-13.96 7.55,-22.26 19.37,-22.26s19.37,8.31 19.37,22.26s-7.55,22.26 -19.37,22.26s-19.37,-8.31 -19.37,-22.26zm32.87,3.65l0,-7.31c0,-9.05 -4.44,-15.37 -13.5,-15.37s-13.5,6.31 -13.5,15.37l0,7.31c0,9.05 4.44,15.37 13.5,15.37s13.5,-6.31 13.5,-15.37z" class="cls-2" />
    <path d="m633.01475,79.69477l6.62,0l0,-35.3l-6.62,-0.91l0,-2.24l11.65,-1.91l0,7.81l0.42,0c1.59,-3.82 5.03,-7.97 11.4,-7.97c4.28,0 6.96,1.99 6.96,5.57c0,2.66 -1.59,4.24 -3.86,4.24c-2.43,0 -4.02,-1.5 -4.02,-3.57c0,-1.74 0.92,-2.99 1.93,-3.16l0,-0.17c-0.33,-0.08 -1.42,-0.17 -2.1,-0.17c-4.95,0 -10.56,5.4 -10.56,10.55l0,27.25l8.3,0l0,2.99l-20.12,0l0,-2.99l0,-0.02z" class="cls-2" />
    <path d="m673.59475,67.56477l0,-23.18l-6.62,-0.91l0,-2.24l11.82,-1.91l0,27.74c0,8.81 3.69,13.04 11.15,13.04c5.7,0 11.32,-3.16 11.32,-9.47l0,-26.25l-6.62,-0.91l0,-2.24l11.82,-1.91l0,39.13l6.62,0.91l0,2.24l-11.66,1.91l0,-7.48l-0.33,0c-1.34,3.74 -5.62,7.64 -12.91,7.64c-10.23,0 -14.59,-5.4 -14.59,-16.12l0,0.01z" class="cls-2" />
    <path d="m719.70475,79.69477l6.62,0l0,-35.3l-6.62,-0.91l0,-2.24l11.65,-1.91l0,7.48l0.33,0c1.43,-3.82 5.53,-7.64 12.66,-7.64s11.66,2.82 13.42,8.89l0.25,0c1.76,-4.57 5.87,-8.89 13.58,-8.89c10.15,0 14.42,5.48 14.42,16.12l0,24.42l6.62,0l0,2.99l-18.45,0l0,-2.99l6.62,0l0,-24.01c0,-8.72 -3.69,-12.96 -10.98,-12.96c-5.7,0 -11.07,3.16 -11.07,9.55l0,27.41l6.62,0l0,2.99l-18.45,0l0,-2.99l6.62,0l0,-24.01c0,-8.72 -3.69,-12.96 -10.98,-12.96c-5.7,0 -11.07,3.16 -11.07,9.55l0,27.41l6.62,0l0,2.99l-18.45,0l0,-2.99l0.04,0z" class="cls-2" />
  </g>
  <g fill="#39dfaa">
    <polygon points="24.664749145507812,98.1547836959362 50.114749908447266,0.27477023005485535 25.824752807617188,0.27477023005485535 0.374750018119812,98.1547836959362 24.664749145507812,98.1547836959362 " class="cls-1" />
    <polygon points="97.25475311279297,98.1547836959362 122.70475006103516,0.27477023005485535 98.41475677490234,0.27477023005485535 72.96475982666016,98.1547836959362 97.25475311279297,98.1547836959362 " class="cls-1" />
    <path d="m74.16475,49.21477c0,6.81 -5.52,12.33 -12.33,12.33s-12.33,-5.52 -12.33,-12.33s5.52,-12.33 12.33,-12.33s12.33,5.52 12.33,12.33" class="cls-1" />
    <path d="m148.09475,49.47477c0,6.81 -5.52,12.33 -12.33,12.33s-12.33,-5.52 -12.33,-12.33s5.52,-12.33 12.33,-12.33s12.33,5.52 12.33,12.33" class="cls-1" />
    <path d="m159.87475,12.60477c0,6.81 -5.52,12.33 -12.33,12.33s-12.33,-5.52 -12.33,-12.33s5.52,-12.33 12.33,-12.33s12.33,5.52 12.33,12.33" class="cls-1" />
  </g>
</svg>
