<svg xmlns="http://www.w3.org/2000/svg" width="795" height="705">
  <g fill="#231f20">
    <path d="m0.01,470.07l17.84,0l0,-139.61l-17.84,0l0,-8.03l50.18,0l0,8.03l-17.84,0l0,63.12l85.86,0l0,-63.12l-17.84,0l0,-8.03l50.18,0l0,8.03l-17.84,0l0,139.61l17.84,0l0,8.03l-50.18,0l0,-8.03l17.84,0l0,-67.8l-85.86,0l0,67.8l17.84,0l0,8.03l-50.18,0l0,-8.03z" class="cls-2" />
    <path d="m179.77,437.51l0,-62.22l-17.62,-2.45l0,-6.02l31.45,-5.13l0,74.49c0,23.64 9.81,35.01 29.66,35.01c15.17,0 30.11,-8.47 30.11,-25.42l0,-70.48l-17.62,-2.45l0,-6.02l31.45,-5.13l0,105.04l17.62,2.45l0,6.02l-31,5.13l0,-20.07l-0.89,0c-3.57,10.04 -14.94,20.52 -34.35,20.52c-27.21,0 -38.81,-14.5 -38.81,-43.27z" class="cls-2" />
    <path d="m304.22,421.01c0,-39.03 18.51,-59.77 47.73,-59.77c18.96,0 30.33,9.59 35.24,20.52l0.89,0l0,-61.33l-17.62,-2.45l0,-6.02l31.45,-5.13l0,159.91l17.62,2.45l0,6.02l-31.45,5.13l0,-20.07l-0.89,0c-4.68,11.15 -16.28,20.52 -35.24,20.52c-29.22,0 -47.73,-20.74 -47.73,-59.77l0,-0.01zm83.85,24.53l0,-49.06c0,-15.83 -16.06,-25.65 -32.56,-25.65c-22.97,0 -36.13,16.5 -36.13,42.15l0,16.06c0,25.65 13.16,42.15 36.13,42.15c16.5,0 32.56,-9.81 32.56,-25.65z" class="cls-2" />
    <path d="m451.64,466.28l-0.67,0l0,11.82l-10.71,0l0,-33.68l10.71,0l0,5.8c0,13.83 10.04,21.86 28.77,21.86s29.22,-6.91 29.22,-21.41c0,-12.49 -7.81,-19.18 -22.3,-22.3l-12.27,-2.68c-21.19,-4.46 -33.23,-14.05 -33.23,-33.68s15.39,-30.78 38.14,-30.78c15.39,0 24.98,5.8 28.32,12.94l0.67,0l0,-10.26l10.71,0l0,33.68l-10.71,0l0,-8.03c0,-13.16 -9.59,-19.63 -27.21,-19.63s-26.99,6.47 -26.99,19.85s8.47,19.18 22.53,22.3l11.82,2.45c21.86,4.91 33.9,14.27 33.9,33.68s-15.17,32.56 -40.37,32.56c-15.61,0 -26.32,-6.91 -30.33,-14.5l0,0.01z" class="cls-2" />
    <path d="m547.09,421.01c0,-37.47 20.07,-59.77 51.52,-59.77s51.52,22.3 51.52,59.77s-20.07,59.77 -51.52,59.77s-51.52,-22.3 -51.52,-59.77zm87.42,9.81l0,-19.62c0,-24.31 -11.82,-41.26 -35.91,-41.26s-35.91,16.95 -35.91,41.26l0,19.62c0,24.31 11.82,41.26 35.91,41.26s35.91,-16.95 35.91,-41.26z" class="cls-2" />
    <path d="m671.76,470.07l17.62,0l0,-94.78l-17.62,-2.45l0,-6.02l31,-5.13l0,20.07l0.89,0c3.79,-10.04 14.94,-20.52 34.35,-20.52c27.21,0 38.81,14.5 38.81,43.04l0,65.79l17.62,0l0,8.03l-49.06,0l0,-8.03l17.62,0l0,-64.45c0,-23.42 -9.81,-34.79 -29.66,-34.79c-15.17,0 -30.11,8.48 -30.11,25.42l0,73.82l17.62,0l0,8.03l-49.07,0l0,-8.03l-0.01,0z" class="cls-2" />
  </g>
  <g fill="#231f20">
    <path d="m0.01,693.1l17.84,0l0,-139.61l-17.84,0l0,-8.03l111.73,0l0,35.91l-12.27,0l0,-27.21l-67.13,0l0,64.68l49.73,0l0,-18.29l10.48,0l0,45.27l-10.48,0l0,-18.29l-49.73,0l0,65.57l22.3,0l0,8.03l-54.64,0l0,-8.03l0.01,0z" class="cls-2" />
    <path d="m128.25,644.04c0,-37.47 20.07,-59.77 51.52,-59.77s51.52,22.3 51.52,59.77s-20.07,59.77 -51.52,59.77s-51.52,-22.3 -51.52,-59.77zm87.42,9.81l0,-19.62c0,-24.31 -11.82,-41.26 -35.91,-41.26s-35.91,16.95 -35.91,41.26l0,19.62c0,24.31 11.82,41.26 35.91,41.26s35.91,-16.95 35.91,-41.26z" class="cls-2" />
    <path d="m252.92,693.1l17.62,0l0,-94.78l-17.62,-2.45l0,-6.02l31,-5.13l0,20.96l1.12,0c4.24,-10.26 13.38,-21.41 30.33,-21.41c11.37,0 18.51,5.35 18.51,14.94c0,7.14 -4.24,11.37 -10.26,11.37c-6.47,0 -10.71,-4.01 -10.71,-9.59c0,-4.68 2.45,-8.03 5.13,-8.48l0,-0.45c-0.89,-0.22 -3.79,-0.45 -5.58,-0.45c-13.16,0 -28.1,14.5 -28.1,28.32l0,73.15l22.08,0l0,8.03l-53.53,0l0,-8.03l0.01,0.02z" class="cls-2" />
    <path d="m360.86,660.54l0,-62.22l-17.62,-2.45l0,-6.02l31.45,-5.13l0,74.49c0,23.64 9.81,35.01 29.66,35.01c15.17,0 30.11,-8.47 30.11,-25.42l0,-70.48l-17.62,-2.45l0,-6.02l31.45,-5.13l0,105.04l17.62,2.45l0,6.02l-31,5.13l0,-20.07l-0.89,0c-3.57,10.04 -14.94,20.52 -34.35,20.52c-27.21,0 -38.81,-14.5 -38.81,-43.27z" class="cls-2" />
    <path d="m483.53,693.1l17.62,0l0,-94.78l-17.62,-2.45l0,-6.02l31,-5.13l0,20.07l0.89,0c3.79,-10.26 14.72,-20.52 33.68,-20.52s31,7.58 35.68,23.86l0.67,0c4.68,-12.27 15.61,-23.86 36.13,-23.86c26.99,0 38.36,14.72 38.36,43.27l0,65.57l17.62,0l0,8.03l-49.07,0l0,-8.03l17.62,0l0,-64.45c0,-23.42 -9.81,-34.79 -29.22,-34.79c-15.17,0 -29.44,8.47 -29.44,25.65l0,73.6l17.62,0l0,8.03l-49.07,0l0,-8.03l17.62,0l0,-64.45c0,-23.42 -9.81,-34.79 -29.22,-34.79c-15.17,0 -29.44,8.47 -29.44,25.65l0,73.6l17.62,0l0,8.03l-49.07,0l0,-8.03l0.02,-0.03z" class="cls-2" />
  </g>
  <g fill="#39dfaa">
    <polygon points="61.41999435424805,244.27001953125 124.92999267578125,0 64.31997680664062,0 0.8099997043609619,244.27001953125 61.41999435424805,244.27001953125 " class="cls-1" />
    <polygon points="242.57000732421875,244.27001953125 306.0800476074219,0 245.47000122070312,0 181.96002197265625,244.27001953125 242.57000732421875,244.27001953125 " class="cls-1" />
    <path d="m184.94,122.14c0,16.99 -13.77,30.76 -30.76,30.76s-30.76,-13.78 -30.76,-30.76s13.77,-30.76 30.76,-30.76s30.76,13.77 30.76,30.76" class="cls-1" />
    <path d="m369.44,122.79c0,16.99 -13.78,30.76 -30.76,30.76s-30.76,-13.77 -30.76,-30.76s13.77,-30.76 30.76,-30.76s30.76,13.78 30.76,30.76" class="cls-1" />
    <path d="m398.83,30.77c0,16.99 -13.77,30.76 -30.76,30.76s-30.76,-13.77 -30.76,-30.76s13.77,-30.76 30.76,-30.76s30.76,13.77 30.76,30.76" class="cls-1" />
  </g>
</svg>
