<svg xmlns="http://www.w3.org/2000/svg" width="724" height="444">
  <g fill="#39dfaa">
    <polygon points="110.05000305175781,443.52001953125 225.3699951171875,0 115.30999755859375,0 0,443.52001953125 110.05000305175781,443.52001953125 " class="cls-1" />
    <polygon points="438.97003173828125,443.52001953125 554.280029296875,0 444.22998046875,0 328.9200134277344,443.52001953125 438.97003173828125,443.52001953125 " class="cls-1" />
    <path d="m334.32,221.76001c0,30.85 -25.01,55.86 -55.85,55.86s-55.86,-25.01 -55.86,-55.86s25.01,-55.86 55.86,-55.86s55.85,25.01 55.85,55.86" class="cls-1" />
    <path d="m669.33,222.93001c0,30.85 -25.01,55.86 -55.86,55.86s-55.86,-25.01 -55.86,-55.86s25.01,-55.86 55.86,-55.86s55.86,25.01 55.86,55.86" class="cls-1" />
    <path d="m722.69,55.86001c0,30.85 -25.01,55.85 -55.86,55.85s-55.85,-25.01 -55.85,-55.85s25.01,-55.86 55.85,-55.86s55.86,25.01 55.86,55.86" class="cls-1" />
  </g>
</svg>
